<?xml version="1.0" encoding="utf-8"?>
<!-- Generator: Adobe Illustrator 21.1.0, SVG Export Plug-In . SVG Version: 6.00 Build 0)  -->
<svg version="1.1" id="Layer_1" xmlns="http://www.w3.org/2000/svg" xmlns:xlink="http://www.w3.org/1999/xlink" x="0px" y="0px"
	 viewBox="0 0 487.5 160.4" style="enable-background:new 0 0 487.5 160.4;" xml:space="preserve">
<style type="text/css">
	.st0{fill:#FFFFFF;}
</style>
<g>
	<g>
		<path class="st0" d="M8.2,82.8V14.6C8.2,9,12.9,4.9,19,4.9h20.9c23.9,0,40.9,18.4,40.9,44.2c0,25.4-17,43.5-40.9,43.5H19
			C12.9,92.6,8.2,88.5,8.2,82.8z M39.9,73.4c11.1,0,18.4-9.6,18.4-24.3c0-15-7.4-24.9-18.4-24.9h-9.7v49.2H39.9z"/>
		<path class="st0" d="M88.9,82.8V14.6c0-5.5,4.8-9.7,11-9.7s11,4.1,11,9.7v68.2c0,5.6-4.8,9.8-11,9.8S88.9,88.4,88.9,82.8z"/>
		<path class="st0" d="M118.2,49c0-25.4,17.9-44.8,41.6-44.8c11.8,0,18.8,3.2,23.5,5.6c3.9,2.1,7.3,5.2,7.3,9.8
			c0,5.9-5,10.1-9.5,10.1c-1.8,0-4.2-0.1-7.4-2.2c-4.8-3.1-8.2-4.1-13.8-4.1c-10.7,0-19.2,11.1-19.2,25.6c0,14.4,7.9,25.2,18,25.2
			c3.5,0,7.2-0.3,10.2-1.7v-7.5c0-2.5-0.7-3.5-3.1-3.5h-3.1c-6.3,0-10.9-3.9-10.9-9.4c0-5.6,4.7-9.9,10.9-9.9h9.1
			c14.8,0,19.2,4.1,19.2,17.7v18.4c0,4.6-2.2,7-6,8.9c-7.8,3.9-17.6,6.2-26.2,6.2C135.4,93.4,118.2,74.4,118.2,49z"/>
		<path class="st0" d="M201.3,82.8V14.6c0-5.5,4.8-9.7,11-9.7s11,4.1,11,9.7v68.2c0,5.6-4.8,9.8-11,9.8
			C206.1,92.6,201.3,88.4,201.3,82.8z"/>
		<path class="st0" d="M249.8,82.8V24.2h-11.7c-6.2,0-10.9-4.1-10.9-9.7c0-5.5,4.7-9.5,10.9-9.5h45.8c6.2,0,10.9,4,10.9,9.5
			c0,5.6-4.7,9.7-10.9,9.7h-12v58.7c0,5.6-4.9,9.8-11.1,9.8C254.6,92.6,249.8,88.4,249.8,82.8z"/>
		<path class="st0" d="M281.5,81.6c0-1.5,0.3-2.6,0.9-4.5c1.8-5.6,15.8-49.1,24.4-66.4c2-4,6.3-5.8,12-5.8s9.7,1.8,11.7,5.8
			c7.9,15.9,23.6,63.4,24.4,66.4c0.6,1.9,0.9,3,0.9,4.5c0,6.1-4.9,11-10.8,11c-5.2,0-9-2.5-10.9-8.4c-0.9-2.6-1.8-5.7-2.8-9.2H306
			c-1,3.5-1.9,6.6-2.8,9.2c-2,5.8-5.8,8.4-10.9,8.4C286.4,92.6,281.5,87.7,281.5,81.6z M324.6,55.8c-1.9-5.8-3.9-12-6-17.9
			c-2.1,5.8-4.2,12.1-6.1,17.9H324.6z"/>
		<path class="st0" d="M360.7,83V14.6c0-5.5,4.8-9.7,11-9.7c6.3,0,11.1,4.1,11.1,9.7v58.8h22.1c6.3,0,11.1,4.1,11.1,9.6
			s-4.9,9.7-11.1,9.7h-33.2C365.5,92.6,360.7,88.5,360.7,83z"/>
		<path class="st0" d="M413.2,104.8c0-5.6,4.8-9.7,11-9.7h44.5c6.2,0,11,4.1,11,9.7c0,5.5-4.8,9.6-11,9.6h-44.5
			C417.9,114.4,413.2,110.3,413.2,104.8z"/>
	</g>
	<g>
		<path class="st0" d="M7.8,114.7c0-2.8,2.2-5,5-5c2.8,0,5,2.2,5,5v0.4c2.3-3,5.3-5.6,10.4-5.6c4.6,0,8.1,2,9.9,5.6
			c3.1-3.6,6.8-5.6,11.6-5.6c7.4,0,11.9,4.5,11.9,12.9v18.3c0,2.8-2.2,5-5,5c-2.8,0-5-2.2-5-5v-15c0-4.7-2.1-7.2-5.8-7.2
			c-3.7,0-6,2.4-6,7.2v15c0,2.8-2.2,5-5,5c-2.8,0-5-2.2-5-5v-15c0-4.7-2.1-7.2-5.8-7.2c-3.7,0-6,2.4-6,7.2v15c0,2.8-2.2,5-5,5
			c-2.8,0-5-2.2-5-5V114.7z"/>
		<path class="st0" d="M68.1,135.2V135c0-7.7,5.8-11.2,14.2-11.2c3.5,0,6.1,0.6,8.6,1.4v-0.6c0-4.1-2.6-6.4-7.6-6.4
			c-2.8,0-5,0.4-6.9,1c-0.6,0.2-1,0.3-1.4,0.3c-2.3,0-4.1-1.8-4.1-4.1c0-1.8,1.1-3.3,2.7-3.9c3.2-1.2,6.6-1.8,11.2-1.8
			c5.4,0,9.4,1.4,11.9,3.9c2.6,2.6,3.8,6.5,3.8,11.2v16c0,2.7-2.2,4.8-4.9,4.8c-2.9,0-4.8-2-4.8-4.1v-0.1c-2.4,2.7-5.8,4.5-10.6,4.5
			C73.6,145.9,68.1,142.1,68.1,135.2z M91,132.9v-1.8c-1.7-0.8-3.9-1.3-6.4-1.3c-4.3,0-6.9,1.7-6.9,4.9v0.1c0,2.7,2.2,4.3,5.4,4.3
			C87.9,139,91,136.5,91,132.9z"/>
		<path class="st0" d="M109.1,114.7c0-2.8,2.2-5,5-5c2.8,0,5,2.2,5,5v1.6c1.4-3.4,3.8-6.6,6.8-6.6c3.1,0,4.9,2,4.9,4.9
			c0,2.6-1.7,4.2-3.7,4.7c-5.1,1.2-7.9,5.1-7.9,12.1v9.3c0,2.8-2.2,5-5,5c-2.8,0-5-2.2-5-5V114.7z"/>
		<path class="st0" d="M136.5,102c0-2.8,2.2-5,5-5c2.8,0,5,2.2,5,5v21.8l12.5-11.8c1.4-1.4,2.6-2.2,4.4-2.2c2.7,0,4.4,2.2,4.4,4.5
			c0,1.7-0.9,3-2.3,4.3l-7.9,6.8l9.4,12.7c0.9,1.2,1.2,2.1,1.2,3.2c0,2.7-2.2,4.5-4.7,4.5c-2,0-3.2-0.7-4.3-2.3l-8.7-12l-4,3.6v5.7
			c0,2.8-2.2,5-5,5c-2.8,0-5-2.2-5-5V102z"/>
		<path class="st0" d="M191.2,146.1c-10.6,0-18.4-7.4-18.4-18.2v-0.1c0-10,7.2-18.3,17.4-18.3c11.8,0,16.9,9.7,16.9,16.9
			c0,2.9-2,4.8-4.7,4.8h-19.8c1,4.5,4.1,6.9,8.6,6.9c2.8,0,5.1-0.9,7.1-2.4c0.7-0.5,1.4-0.8,2.4-0.8c2.2,0,3.9,1.7,3.9,3.9
			c0,1.3-0.6,2.3-1.3,3C200.3,144.4,196.3,146.1,191.2,146.1z M197.6,124.9c-0.6-4.5-3.2-7.5-7.4-7.5c-4.1,0-6.8,3-7.6,7.5H197.6z"
			/>
		<path class="st0" d="M216.4,135.3v-16.7H216c-2.4,0-4.3-1.9-4.3-4.3c0-2.4,1.9-4.3,4.3-4.3h0.3v-4.4c0-2.8,2.2-5,5-5
			c2.8,0,5,2.2,5,5v4.4h4.4c2.4,0,4.3,1.9,4.3,4.3c0,2.4-1.9,4.3-4.3,4.3h-4.4v15c0,2.3,1,3.4,3.2,3.4c0.3,0,1-0.1,1.2-0.1
			c2.2,0,4.1,1.8,4.1,4.1c0,1.8-1.2,3.2-2.6,3.7c-1.8,0.7-3.5,1-5.7,1C220.5,145.9,216.4,143.4,216.4,135.3z"/>
		<path class="st0" d="M242,114.7c0-2.8,2.2-5,5-5c2.8,0,5,2.2,5,5v0.5c2.4-3.3,5.8-5.7,11-5.7c8.2,0,16,6.4,16,18.2v0.1
			c0,11.8-7.7,18.2-16,18.2c-5.3,0-8.6-2.4-11-5.3v10.5c0,2.8-2.2,5-5,5c-2.8,0-5-2.2-5-5V114.7z M269,127.8v-0.1
			c0-5.8-3.9-9.7-8.6-9.7c-4.7,0-8.5,3.9-8.5,9.7v0.1c0,5.8,3.9,9.7,8.5,9.7C265,137.5,269,133.7,269,127.8z"/>
		<path class="st0" d="M286.8,102c0-2.8,2.2-5,5-5c2.8,0,5,2.2,5,5v38.7c0,2.8-2.2,5-5,5c-2.8,0-5-2.2-5-5V102z"/>
		<path class="st0" d="M304,135.2V135c0-7.7,5.8-11.2,14.2-11.2c3.5,0,6.1,0.6,8.6,1.4v-0.6c0-4.1-2.6-6.4-7.6-6.4
			c-2.8,0-5,0.4-6.9,1c-0.6,0.2-1,0.3-1.4,0.3c-2.3,0-4.1-1.8-4.1-4.1c0-1.8,1.1-3.3,2.7-3.9c3.2-1.2,6.6-1.8,11.2-1.8
			c5.4,0,9.4,1.4,11.9,3.9c2.6,2.6,3.8,6.5,3.8,11.2v16c0,2.7-2.2,4.8-4.9,4.8c-2.9,0-4.8-2-4.8-4.1v-0.1c-2.4,2.7-5.8,4.5-10.6,4.5
			C309.5,145.9,304,142.1,304,135.2z M326.9,132.9v-1.8c-1.7-0.8-3.9-1.3-6.4-1.3c-4.3,0-6.9,1.7-6.9,4.9v0.1c0,2.7,2.2,4.3,5.4,4.3
			C323.8,139,326.9,136.5,326.9,132.9z"/>
		<path class="st0" d="M343.3,127.9v-0.1c0-10,7.7-18.3,18.4-18.3c5.3,0,9.1,1.4,12,3.9c0.7,0.5,1.6,1.7,1.6,3.4
			c0,2.5-2,4.5-4.5,4.5c-1.3,0-2.3-0.5-2.9-1c-1.8-1.4-3.6-2.2-6.2-2.2c-5,0-8.5,4.4-8.5,9.6v0.1c0,5.4,3.5,9.7,8.9,9.7
			c2.6,0,4.7-0.9,6.6-2.4c0.5-0.4,1.5-0.9,2.7-0.9c2.4,0,4.2,1.9,4.2,4.3c0,1.3-0.6,2.4-1.4,3.2c-3,2.7-6.7,4.5-12.5,4.5
			C351,146.1,343.3,137.9,343.3,127.9z"/>
		<path class="st0" d="M398.2,146.1c-10.6,0-18.4-7.4-18.4-18.2v-0.1c0-10,7.2-18.3,17.4-18.3c11.8,0,16.9,9.7,16.9,16.9
			c0,2.9-2,4.8-4.7,4.8h-19.8c1,4.5,4.1,6.9,8.6,6.9c2.8,0,5.1-0.9,7.1-2.4c0.7-0.5,1.4-0.8,2.4-0.8c2.2,0,3.9,1.7,3.9,3.9
			c0,1.3-0.6,2.3-1.3,3C407.3,144.4,403.3,146.1,398.2,146.1z M404.6,124.9c-0.6-4.5-3.2-7.5-7.4-7.5c-4.1,0-6.8,3-7.6,7.5H404.6z"
			/>
	</g>
</g>
</svg>
